HIERARCHY
ROOT Hips
{
	OFFSET 0.000000 0.000000 0.000000
	CHANNELS 6 Xposition Yposition Zposition Xrotation Yrotation Zrotation
	JOINT LeftUpLeg_virtual
	{
		OFFSET 0.000000 0.000000 0.000000
		CHANNELS 3 Xrotation Yrotation Zrotation
		JOINT LeftUpLeg
		{
			OFFSET 10.205400 -3.823500 0.155100
			CHANNELS 3 Xrotation Yrotation Zrotation
			JOINT LeftLeg
			{
				OFFSET 0.708757 -12.982077 0.567790
				CHANNELS 3 Xrotation Yrotation Zrotation
				JOINT LeftFoot
				{
					OFFSET -0.708756 -10.717838 -2.184338
					CHANNELS 3 Xrotation Yrotation Zrotation
					JOINT LeftToeBase
					{
						OFFSET 0.108149 -7.191104 7.560241
						CHANNELS 3 Xrotation Yrotation Zrotation
						JOINT LeftToe_End
						{
							OFFSET 0.070230 0.081724 4.490308
							CHANNELS 3 Xrotation Yrotation Zrotation
							End Site
							{
								OFFSET 0 0 0
							}
						}
					}
				}
			}
		}
	}
	JOINT RightUpLeg_virtual
	{
		OFFSET 0.000000 0.000000 0.000000
		CHANNELS 3 Xrotation Yrotation Zrotation
		JOINT RightUpLeg
		{
			OFFSET -10.205400 -3.823500 0.005500
			CHANNELS 3 Xrotation Yrotation Zrotation
			JOINT RightLeg
			{
				OFFSET -0.708756 -12.982134 0.610632
				CHANNELS 3 Xrotation Yrotation Zrotation
				JOINT RightFoot
				{
					OFFSET 0.708754 -10.717769 -1.945823
					CHANNELS 3 Xrotation Yrotation Zrotation
					JOINT RightToeBase
					{
						OFFSET -0.108140 -7.191069 7.372968
						CHANNELS 3 Xrotation Yrotation Zrotation
						JOINT RightToe_End
						{
							OFFSET -0.070227 0.081735 4.479403
							CHANNELS 3 Xrotation Yrotation Zrotation
							End Site
							{
								OFFSET 0 0 0
							}
						}
					}
				}
			}
		}
	}
	JOINT Spine_virtual
	{
		OFFSET 0.000000 0.000000 0.000000
		CHANNELS 3 Xrotation Yrotation Zrotation
		JOINT Spine
		{
			OFFSET 0.000000 6.876099 0.125700
			CHANNELS 3 Xrotation Yrotation Zrotation
			JOINT Spine1
			{
				OFFSET 0.000000 5.730043 0.104720
				CHANNELS 3 Xrotation Yrotation Zrotation
				JOINT Spine1_split
				{
					OFFSET 0.000000 5.730043 0.104720
					CHANNELS 3 Xrotation Yrotation Zrotation
					JOINT Spine2
					{
						OFFSET 0.000000 5.730043 0.104720
						CHANNELS 3 Xrotation Yrotation Zrotation
						JOINT Neck_virtual
						{
							OFFSET 0.000000 0.000000 0.000000
							CHANNELS 3 Xrotation Yrotation Zrotation
							JOINT Neck
							{
								OFFSET 0.000000 10.314075 0.188496
								CHANNELS 3 Xrotation Yrotation Zrotation
								JOINT Head
								{
									OFFSET 0.000000 7.643700 -2.377400
									CHANNELS 3 Xrotation Yrotation Zrotation
									JOINT HeadTop_End
									{
										OFFSET 0.000000 43.788605 -13.619600
										CHANNELS 3 Xrotation Yrotation Zrotation
										End Site
										{
											OFFSET 0 0 0
										}
									}
								}
							}
						}
						JOINT LeftShoulder_virtual
						{
							OFFSET 0.000000 0.000000 0.000000
							CHANNELS 3 Xrotation Yrotation Zrotation
							JOINT LeftShoulder
							{
								OFFSET 2.196100 4.412489 0.087492
								CHANNELS 3 Xrotation Yrotation Zrotation
								JOINT LeftShoulder_split
								{
									OFFSET 2.196100 4.412489 0.087492
									CHANNELS 3 Xrotation Yrotation Zrotation
									JOINT LeftArm
									{
										OFFSET 8.771219 -2.981674 -0.026999
										CHANNELS 3 Xrotation Yrotation Zrotation
										JOINT LeftForeArm
										{
											OFFSET 8.512804 0.000000 -0.000000
											CHANNELS 3 Xrotation Yrotation Zrotation
											JOINT LeftHand
											{
												OFFSET 18.484802 0.000000 -0.000000
												CHANNELS 3 Xrotation Yrotation Zrotation
												End Site
												{
													OFFSET 0 0 0
												}
											}
										}
									}
								}
							}
						}
						JOINT RightShoulder_virtual
						{
							OFFSET 0.000000 0.000000 0.000000
							CHANNELS 3 Xrotation Yrotation Zrotation
							JOINT RightShoulder
							{
								OFFSET -2.196100 4.412496 0.070690
								CHANNELS 3 Xrotation Yrotation Zrotation
								JOINT RightShoulder_split
								{
									OFFSET -2.196100 4.412496 0.070690
									CHANNELS 3 Xrotation Yrotation Zrotation
									JOINT RightArm
									{
										OFFSET -8.771282 -2.981682 -0.094208
										CHANNELS 3 Xrotation Yrotation Zrotation
										JOINT RightForeArm
										{
											OFFSET -8.494598 0.000000 0.000000
											CHANNELS 3 Xrotation Yrotation Zrotation
											JOINT RightHand
											{
												OFFSET -18.483803 0.000000 0.000001
												CHANNELS 3 Xrotation Yrotation Zrotation
												End Site
												{
													OFFSET 0 0 0
												}
											}
										}
									}
								}
							}
						}
					}
				}
			}
		}
	}
}
MOTION
Frames: 10
Frame Time: 0.03333333
2.492544 26.369041 -4.135682 0.000000 0.000000 0.000000 -8.402438 5.018967 1.349548 -33.808391 -5.631195 17.333299 74.799621 -6.292879 1.618890 -29.016300 2.519219 -19.007402 -3.971373 -4.748721 -0.099999 0.000000 0.000000 0.000000 -7.929443 4.544366 1.103452 -25.890192 -8.204317 -16.407728 71.091027 9.747886 -5.117746 -41.506329 -24.224058 23.593119 3.023564 6.201420 -17.352230 0.000000 0.000000 0.000000 -8.913888 6.537204 1.014903 15.621688 2.655301 2.536765 11.660138 -3.035986 2.725603 0.151862 -0.422873 0.052137 0.000000 0.000000 0.000000 13.375596 -0.900825 1.888428 10.836455 4.213389 2.186977 22.425685 -3.570334 -19.043297 0.000000 0.000000 0.000000 13.283405 -2.614654 1.156402 2.097031 -16.453195 -9.036544 9.174304 -3.456444 -4.324435 -32.764534 -13.927005 -47.749794 -45.084419 -69.346706 -52.309943 0.000000 0.000000 0.000000 13.953008 -1.950378 2.226303 3.187212 -2.552082 22.442596 9.292115 4.690147 5.905865 -37.329723 39.040589 55.062765 -60.141851 72.625668 54.982818 0.000000 0.000000 0.000000 
2.454735 26.622702 -3.982319 0.000000 0.000000 0.000000 -8.879300 4.913149 1.455814 -31.862843 -5.084379 16.979345 73.545947 -6.001263 1.848951 -29.603406 2.906861 -18.895628 -3.554279 -4.809344 -0.155323 0.000000 0.000000 0.000000 -8.357828 4.333386 1.212817 -24.487944 -8.718149 -16.121591 70.033570 9.695113 -5.079526 -41.503918 -23.792500 23.147964 2.870228 6.174894 -17.258264 0.000000 0.000000 0.000000 -9.264395 6.290743 1.214096 16.134806 2.715114 3.092902 10.661762 -3.392826 2.322148 0.082118 -0.490230 0.022410 0.000000 0.000000 0.000000 12.394262 -1.270435 1.541696 10.227855 4.642095 0.617832 21.973410 -2.948051 -17.802670 0.000000 0.000000 0.000000 12.653888 -2.920877 0.960760 1.737782 -15.092336 -9.895754 9.315397 -3.817004 -4.623050 -31.005422 -15.794672 -48.554852 -35.888348 -69.285951 -42.719374 0.000000 0.000000 0.000000 13.155111 -2.344045 1.766710 3.369816 -1.963894 22.414651 9.901174 3.463546 5.629562 -34.815151 39.229659 54.851381 -52.836458 74.297684 47.540442 0.000000 0.000000 0.000000 
2.387964 26.946323 -3.774429 0.000000 0.000000 0.000000 -9.331736 4.760549 1.606898 -29.762881 -4.539899 16.532623 71.790302 -5.706399 2.136276 -30.010202 3.366728 -18.791341 -2.739334 -4.856921 -0.137853 0.000000 0.000000 0.000000 -8.794516 4.203181 1.389654 -22.821511 -9.416646 -15.845019 68.634256 9.652593 -4.977310 -41.410071 -23.359197 22.626207 2.602447 6.185168 -17.152210 0.000000 0.000000 0.000000 -9.697458 6.171134 1.434416 16.665240 2.749147 3.526905 9.823621 -3.661877 1.971350 0.002218 -0.514842 0.048368 0.000000 0.000000 0.000000 11.577310 -1.560940 1.212076 9.641697 5.104057 -0.933744 20.243805 -2.442729 -16.486041 0.000000 0.000000 0.000000 12.064527 -3.169286 0.824865 1.425273 -14.497420 -10.795686 8.772339 -3.899843 -4.749453 -28.027898 -17.754546 -48.745202 -27.172311 -68.588077 -33.135211 0.000000 0.000000 0.000000 12.320574 -2.700970 1.383619 3.403536 -1.346718 22.396585 9.882093 2.296178 5.543659 -30.728464 39.457627 53.035172 -52.465921 77.731419 47.391773 0.000000 0.000000 0.000000 
2.289265 27.297340 -3.558827 0.000000 0.000000 0.000000 -9.686042 4.553790 1.744307 -27.749242 -4.135454 16.076600 69.818276 -5.493174 2.489406 -30.125161 3.754970 -18.751569 -1.826696 -4.909106 -0.023198 0.000000 0.000000 0.000000 -9.213913 4.174525 1.588968 -21.123120 -10.158691 -15.588563 67.050697 9.640633 -4.780429 -41.180215 -22.934081 22.111855 2.273398 6.232206 -17.096744 0.000000 0.000000 0.000000 -10.049461 6.174957 1.561542 17.160929 2.773996 3.829264 9.188469 -3.825137 1.716887 0.037886 -0.535342 0.110378 0.000000 0.000000 0.000000 11.008364 -1.757583 1.006077 8.990394 5.587239 -2.403279 17.530044 -2.053242 -15.328094 0.000000 0.000000 0.000000 11.498600 -3.332625 0.788744 1.229504 -14.474991 -11.557197 7.704003 -3.809237 -4.968405 -24.903867 -18.920474 -48.296346 -20.608416 -68.107136 -25.244120 0.000000 0.000000 0.000000 11.513287 -2.987872 1.150677 3.318127 -0.841090 22.287988 9.135270 1.519032 5.879791 -25.748975 38.816679 50.596709 -61.284187 81.779945 56.643585 0.000000 0.000000 0.000000 
2.181900 27.636217 -3.350622 0.000000 0.000000 0.000000 -9.918846 4.363985 1.826859 -26.007655 -3.966147 15.665548 67.908889 -5.361865 2.883018 -30.011380 4.039759 -18.743619 -0.984821 -4.959300 0.124358 0.000000 0.000000 0.000000 -9.540302 4.252766 1.734572 -19.527354 -10.781928 -15.361212 65.467698 9.654720 -4.466942 -40.898763 -22.538135 21.610449 2.063017 6.291905 -17.108733 0.000000 0.000000 0.000000 -10.249165 6.231271 1.573282 17.515663 2.783364 4.031808 8.736034 -3.890916 1.545043 0.107483 -0.531598 0.161433 0.000000 0.000000 0.000000 10.651599 -1.868002 0.959130 8.214774 6.068712 -3.661432 14.144718 -1.864616 -14.477400 0.000000 0.000000 0.000000 11.002542 -3.403769 0.803165 1.182600 -14.691759 -12.189471 6.137225 -3.726140 -5.306485 -22.063065 -18.532197 -47.884554 -15.886573 -68.727365 -18.863985 0.000000 0.000000 0.000000 10.852747 -3.184214 1.051045 3.154512 -0.544713 22.098983 8.361857 1.517175 6.271039 -20.984190 36.736869 48.783434 -81.857556 84.752040 77.587834 0.000000 0.000000 0.000000 
2.083790 27.935768 -3.179543 0.000000 0.000000 0.000000 -10.038606 4.247269 1.818951 -24.650728 -4.025375 15.341775 66.239427 -5.333583 3.308389 -29.708779 4.241190 -18.860739 -0.383216 -4.994405 0.245852 0.000000 0.000000 0.000000 -9.785341 4.399721 1.791336 -18.119717 -11.203460 -15.129077 63.983962 9.665287 -4.067538 -40.715977 -22.193817 21.048234 2.128500 6.337499 -17.189489 0.000000 0.000000 0.000000 -10.293216 6.276695 1.482555 17.657470 2.778123 4.139935 8.439167 -3.888876 1.407120 0.213827 -0.480058 0.173261 0.000000 0.000000 0.000000 10.464284 -1.907366 1.008845 7.346633 6.504512 -4.571939 10.515214 -1.851396 -13.935730 0.000000 0.000000 0.000000 10.589134 -3.404399 0.792823 1.239374 -14.881773 -12.621812 4.666371 -3.722989 -5.550575 -19.828229 -16.460105 -48.266990 -10.989147 -70.552029 -12.258908 0.000000 0.000000 0.000000 10.379948 -3.271246 1.043515 3.004833 -0.472377 21.864035 7.846600 2.039298 6.347003 -17.807025 33.480054 48.647882 -99.993826 86.175356 95.899476 0.000000 0.000000 0.000000 
2.002478 28.179636 -3.050307 0.000000 0.000000 0.000000 -10.084058 4.237066 1.726492 -23.598836 -4.181752 15.107880 64.764673 -5.336075 3.682199 -29.350467 4.400378 -19.021915 -0.132952 -5.011419 0.342986 0.000000 0.000000 0.000000 -9.986117 4.505250 1.745253 -16.923889 -11.428072 -14.883728 62.688166 9.622943 -3.617724 -40.690514 -21.937104 20.372743 2.424456 6.361470 -17.303613 0.000000 0.000000 0.000000 -10.242424 6.370729 1.391877 17.574732 2.743664 4.143766 8.236004 -3.830242 1.251242 0.290317 -0.459016 0.140442 0.000000 0.000000 0.000000 10.363678 -1.908299 1.110494 6.441662 6.807470 -5.035137 6.996466 -2.077299 -13.564051 0.000000 0.000000 0.000000 10.252271 -3.350298 0.712083 1.380567 -14.783471 -12.736742 3.521784 -3.740818 -5.597869 -18.239475 -13.347319 -49.559258 -2.644042 -72.354721 -2.439611 0.000000 0.000000 0.000000 10.107496 -3.267182 1.070460 2.923396 -0.686467 21.443510 7.199335 2.957576 6.501395 -15.980923 29.722548 49.605444 -92.367114 87.153596 88.083247 0.000000 0.000000 0.000000 
1.953538 28.366243 -2.944849 0.000000 0.000000 0.000000 -10.086299 4.301996 1.598899 -22.834296 -4.300058 14.955155 63.468358 -5.332496 3.935594 -29.004378 4.573639 -19.164940 -0.056723 -4.998747 0.369120 0.000000 0.000000 0.000000 -10.120726 4.520130 1.652013 -15.891554 -11.502426 -14.632797 61.605192 9.519614 -3.168016 -40.762931 -21.790863 19.676875 2.759493 6.375613 -17.425781 0.000000 0.000000 0.000000 -10.184125 6.456271 1.354932 17.271954 2.679381 4.040142 8.086343 -3.739088 1.066199 0.275720 -0.447205 0.059847 0.000000 0.000000 0.000000 10.274626 -1.887962 1.184470 5.523185 6.936085 -5.003801 3.881733 -2.701349 -13.201346 0.000000 0.000000 0.000000 9.989570 -3.270629 0.542746 1.559536 -14.418348 -12.481612 2.640192 -3.876251 -5.227754 -16.917535 -10.099471 -51.621378 10.138162 -72.903998 11.443925 0.000000 0.000000 0.000000 9.998256 -3.200293 1.078288 2.927398 -1.163337 20.901769 6.769827 4.125805 6.452379 -15.151544 26.250242 50.986512 -63.625329 87.555437 58.867304 0.000000 0.000000 0.000000 
1.934196 28.505615 -2.857427 0.000000 0.000000 0.000000 -10.051912 4.317648 1.485895 -22.243052 -4.263100 14.870973 62.300485 -5.299813 4.045203 -28.746805 4.749418 -19.194264 -0.039642 -4.970309 0.366916 0.000000 0.000000 0.000000 -10.195227 4.419949 1.563788 -15.018667 -11.480363 -14.415408 60.703224 9.386932 -2.774692 -40.810360 -21.772393 19.151640 2.944445 6.386473 -17.538384 0.000000 0.000000 0.000000 -10.169147 6.563582 1.378357 16.850217 2.594169 3.807817 7.983134 -3.630691 0.870418 0.229404 -0.387449 -0.006437 0.000000 0.000000 0.000000 10.185548 -1.855889 1.174612 4.629856 6.880723 -4.558589 1.325544 -3.830742 -12.732086 0.000000 0.000000 0.000000 9.776265 -3.197041 0.302587 1.730544 -13.895841 -11.815912 2.145885 -4.054802 -4.441154 -15.962591 -7.454010 -53.899079 24.116636 -71.230117 26.087715 0.000000 0.000000 0.000000 9.964274 -3.089437 1.062572 3.013854 -1.804144 20.349417 6.361967 5.198901 6.401334 -14.588941 23.573257 52.212852 -41.189770 87.463175 35.854187 0.000000 0.000000 0.000000 
1.933372 28.603294 -2.772367 0.000000 0.000000 0.000000 -9.996766 4.204329 1.422428 -21.723483 -4.034855 14.843557 61.272001 -5.247061 4.025106 -28.608869 4.915073 -19.081194 0.039764 -4.935023 0.383062 0.000000 0.000000 0.000000 -10.210522 4.244418 1.532143 -14.268478 -11.390677 -14.256323 59.993206 9.265453 -2.455058 -40.794599 -21.853802 18.878738 2.938231 6.390803 -17.620442 0.000000 0.000000 0.000000 -10.187388 6.673280 1.424541 16.384207 2.486978 3.480322 7.915160 -3.509809 0.672379 0.155394 -0.281617 -0.057491 0.000000 0.000000 0.000000 10.078621 -1.807585 1.071479 3.805003 6.660359 -3.840406 -0.762644 -5.583640 -12.146008 0.000000 0.000000 0.000000 9.612030 -3.135144 0.042917 1.907303 -13.361494 -10.900936 1.907233 -4.207445 -3.636976 -15.500947 -5.700521 -55.874663 34.813556 -67.640046 37.079014 0.000000 0.000000 0.000000 9.963065 -2.958081 1.019547 3.128980 -2.449569 19.867974 5.934537 6.139007 6.344605 -13.453446 21.603827 52.873239 -31.842636 87.814567 25.942773 0.000000 0.000000 0.000000 
